<svg id="vector" xmlns="http://www.w3.org/2000/svg" viewBox="0 0 54.29 69.8"><defs><style>.cls-1{fill:#fff;}</style></defs><path id="path" class="cls-1" d="M58.3,3.23c.27.27.5.44.67.64a11,11,0,0,1,2.2,3.63,10,10,0,0,1,.4,5.47,13.07,13.07,0,0,1-.5,1.86A15.75,15.75,0,0,1,60,16.9l-2.8,4.47L54.87,25l-3.34,5.2L48.2,35.67c-.83,1.36-1.63,2.73-2.5,4.1l-4.13,6.66c-.8,1.3-1.6,2.67-2.44,4s-2,3-3,4.57l-1.1,1.66a2.08,2.08,0,0,0-.24.47,17.77,17.77,0,0,0,5.84.8,18.19,18.19,0,0,0,15.9-10.73A17.72,17.72,0,0,0,58,38.67a18.31,18.31,0,0,0-2.73-8.27l5.23-8.33,1.63,2.06a27.14,27.14,0,0,1,3.67,7.14A22.66,22.66,0,0,1,67,36.8c.08,1.65.08,3.31,0,5a20.85,20.85,0,0,1-1,5.86A39.25,39.25,0,0,1,64.3,52,21.65,21.65,0,0,1,61,57a30.34,30.34,0,0,1-2.34,2.6,26,26,0,0,1-6,4.37,27.23,27.23,0,0,1-8.13,2.8,22.19,22.19,0,0,1-3.64.33,33.65,33.65,0,0,1-4.26-.17,19.6,19.6,0,0,0-4.84,0,41.26,41.26,0,0,0-5.6,1.17,46.45,46.45,0,0,0-5.06,2c-1.14.5-2.24,1.06-3.34,1.66a18.22,18.22,0,0,0-1.6,1c-.43.33-.83.36-1.1,0a.77.77,0,0,1,0-.94l3-4.76L21.37,62c1.06-1.64,2.1-3.34,3.13-4.9l2.23-3.84c.9-1.43,1.84-2.86,2.74-4.33,1.26-2,2.53-4,3.76-6.07l5.54-8.76c1-1.54,2-3,3-4.6l3-4.74c.67-1.06,1.4-2.1,2.07-3.13l2.1-3.33,2.83-4.4,1.7-2.77,1.7-2.7c.63-1,1.27-2,1.87-3ZM25,50.07l-5.13,8.2a25.49,25.49,0,0,1-5.73-10A26.37,26.37,0,0,1,15.7,27.7,27.05,27.05,0,0,1,47.8,13.83l-5.2,8.3a17.67,17.67,0,0,0-17.73,8.3A17.62,17.62,0,0,0,25,50.07Z" transform="translate(-12.77 -3.23)"/></svg>